<?xml version="1.0" encoding="UTF-8" standalone="no"?>
<!-- Created with Inkscape (http://www.inkscape.org/) -->
<svg xmlns:dc="http://purl.org/dc/elements/1.1/" xmlns:cc="http://creativecommons.org/ns#" xmlns:rdf="http://www.w3.org/1999/02/22-rdf-syntax-ns#" xmlns:svg="http://www.w3.org/2000/svg" xmlns="http://www.w3.org/2000/svg" xmlns:sodipodi="http://sodipodi.sourceforge.net/DTD/sodipodi-0.dtd" xmlns:inkscape="http://www.inkscape.org/namespaces/inkscape" width="561.09998" height="411.36078" id="svg2" version="1.1" inkscape:version="0.48.5 r10040" sodipodi:docname="Wikimedia MA User Group.svg">
  <title id="title4181">Wikimedia MA User Group</title>
  <defs id="defs4">
	

		
		
		
		
		
		
		
		
		
		
		
		
		
		
		
		
		
		
		
	</defs>
  <sodipodi:namedview id="base" pagecolor="#ffffff" bordercolor="#666666" borderopacity="1.0" inkscape:pageopacity="0.0" inkscape:pageshadow="2" inkscape:zoom="0.72460937" inkscape:cx="539.6229" inkscape:cy="176.24047" inkscape:document-units="px" inkscape:current-layer="layer1" showgrid="false" inkscape:snap-object-midpoints="true" inkscape:snap-center="true" fit-margin-top="0" fit-margin-left="0" fit-margin-right="0" fit-margin-bottom="0" inkscape:window-width="1366" inkscape:window-height="705" inkscape:window-x="-8" inkscape:window-y="-8" inkscape:window-maximized="1"/>
  <metadata id="metadata7">
    <rdf:RDF>
      <cc:Work rdf:about="">
        <dc:format>image/svg+xml</dc:format>
        <dc:type rdf:resource="http://purl.org/dc/dcmitype/StillImage"/>
        <dc:title>Wikimedia MA User Group</dc:title>
      </cc:Work>
    </rdf:RDF>
  </metadata>
  <g inkscape:label="Layer 1" inkscape:groupmode="layer" id="layer1" transform="translate(1075.4611,-563.9704)">
    <g id="g4206">
      <g id="text3358" style="font-size:40.56390381px;font-style:normal;font-variant:normal;font-weight:normal;font-stretch:normal;text-align:center;line-height:100%;letter-spacing:10px;word-spacing:0px;writing-mode:lr-tb;text-anchor:middle;fill:#484848;fill-opacity:1;stroke:none;font-family:Gotham;-inkscape-font-specification:Gotham">
        <path id="path4184" style="letter-spacing:6px;fill:#484848;font-family:Montserrat;-inkscape-font-specification:Montserrat" d="m -1006.184,946.73399 0,28.39437 4.5025,0 0,-21.21465 8.9645,18.25352 3.12338,0 8.96451,-18.25352 0.0406,21.21465 4.4214,0 0,-28.39437 -5.63831,0 -9.32957,18.86197 -9.37018,-18.86197 z"/>
        <path id="path4186" style="letter-spacing:6px;fill:#484848;font-family:Montserrat;-inkscape-font-specification:Montserrat" d="m -941.57834,975.12836 5.11099,0 -12.4124,-28.39437 -4.90817,0 -12.53408,28.39437 4.98929,0 2.71775,-6.40902 14.31887,0 z m -15.25183,-10.66817 5.35436,-12.61521 5.35437,12.61521 z"/>
        <path id="path4188" style="letter-spacing:6px;fill:#484848;font-family:Montserrat;-inkscape-font-specification:Montserrat" d="m -904.26371,963.36498 0,-16.63099 -4.78648,0 0,16.63099 c 0.0363,3.7462 1.14,6.66845 3.31099,8.76676 2.17098,2.09831 5.19125,3.16479 9.06084,3.19943 3.86787,-0.0346 6.88139,-1.10112 9.04057,-3.19943 2.15912,-2.09831 3.25602,-5.02056 3.2907,-8.76676 l 0,-16.63099 -4.78648,0 0,16.63099 c -0.0237,2.43127 -0.69636,4.3124 -2.01803,5.64338 -1.32171,1.33099 -3.15044,2.00535 -5.48619,2.0231 -2.35861,-0.0203 -4.21269,-0.69972 -5.56226,-2.03832 -1.34958,-1.33858 -2.03747,-3.21463 -2.06366,-5.62816 z"/>
        <path id="path4190" style="letter-spacing:6px;fill:#484848;font-family:Montserrat;-inkscape-font-specification:Montserrat" d="m -854.22479,953.67033 1.9876,-4.21859 c -1.33692,-0.88477 -2.86143,-1.58955 -4.57352,-2.11437 -1.71213,-0.52476 -3.50029,-0.79349 -5.36451,-0.8062 -3.12846,0.0254 -5.6231,0.73524 -7.48394,2.12958 -1.86085,1.39439 -2.81409,3.32115 -2.85972,5.78028 0.0799,2.46393 0.87845,4.25949 2.39578,5.38669 1.51731,1.12723 3.27421,1.95308 5.2707,2.47754 1.99647,0.52448 3.75337,1.11455 5.27071,1.77021 1.5173,0.65568 2.31589,1.74392 2.39577,3.26472 -0.0135,1.10198 -0.4834,1.95043 -1.40958,2.54535 -0.92621,0.59493 -2.22762,0.89578 -3.90422,0.90254 -1.54903,-0.005 -3.16649,-0.36 -4.8524,-1.06479 -1.68592,-0.70479 -3.27296,-1.72901 -4.76112,-3.07268 l -2.06874,4.13747 c 1.48225,1.35887 3.2231,2.44394 5.22254,3.25521 1.99943,0.81126 4.12562,1.22704 6.37859,1.24732 3.17914,-0.0245 5.74477,-0.75634 7.6969,-2.19549 1.95209,-1.43916 2.95604,-3.43859 3.01183,-5.99831 -0.0698,-2.49538 -0.86062,-4.32432 -2.37232,-5.48683 -1.51175,-1.16249 -3.26463,-2.01918 -5.25866,-2.57008 -1.99407,-0.55086 -3.74949,-1.15656 -5.26627,-1.81711 -1.51681,-0.66051 -2.31519,-1.73649 -2.39514,-3.22795 0.0177,-0.95745 0.43858,-1.68928 1.26253,-2.1955 0.82394,-0.50617 1.9445,-0.76138 3.36169,-0.76563 1.09436,-0.007 2.36365,0.19946 3.80789,0.61859 1.44421,0.41918 2.94674,1.09185 4.50761,2.01803 z"/>
        <path id="path4192" style="letter-spacing:6px;fill:#484848;font-family:Montserrat;-inkscape-font-specification:Montserrat" d="m -840.31081,946.73399 0,28.39437 20.76845,0 0,-4.29972 -15.98197,0 0,-7.82873 13.87268,0 0,-4.25916 -13.87268,0 0,-7.70704 15.49521,0 0,-4.29972 z"/>
        <path id="path4194" style="letter-spacing:6px;fill:#484848;font-family:Montserrat;-inkscape-font-specification:Montserrat" d="m -784.2451,975.12836 -6.36845,-9.49183 c 1.89547,-0.73859 3.3473,-1.88788 4.35549,-3.44789 1.00814,-1.55999 1.51687,-3.47999 1.5262,-5.76 -0.0229,-3.10139 -1.02172,-5.48787 -2.99662,-7.15944 -1.97495,-1.67152 -4.78904,-2.51659 -8.44226,-2.53521 l -11.52,0 0,28.39437 4.78648,0 0,-8.55888 6.73352,0 c 0.45295,0.007 0.88562,-0.007 1.29803,-0.0406 l 5.19211,8.59944 z m -18.65916,-12.8586 0,-11.23605 6.73352,0 c 2.20393,-0.003 3.90083,0.4496 5.09071,1.35887 1.18983,0.90932 1.79152,2.29523 1.80507,4.15775 -0.0135,1.92424 -0.61523,3.35917 -1.80507,4.30479 -1.18988,0.94564 -2.88678,1.41719 -5.09071,1.41464 z"/>
        <path id="path4196" style="letter-spacing:6px;fill:#484848;font-family:Montserrat;-inkscape-font-specification:Montserrat" d="m -734.74626,969.08441 c -1.02763,0.61353 -2.10594,1.09015 -3.23493,1.42986 -1.12903,0.33972 -2.22762,0.51212 -3.29577,0.51719 -2.97044,-0.0659 -5.42621,-1.03944 -7.36733,-2.92057 -1.94113,-1.88112 -2.94677,-4.27435 -3.0169,-7.17972 0.0684,-2.8859 1.06732,-5.2673 2.99662,-7.14422 1.92929,-1.87688 4.3783,-2.84871 7.34704,-2.9155 1.49998,0.008 2.96195,0.2958 4.38592,0.86198 1.42392,0.56622 2.69321,1.36058 3.80789,2.3831 l 2.71774,-3.52902 c -1.42566,-1.2304 -3.08706,-2.19716 -4.98422,-2.90028 -1.89721,-0.70307 -3.87298,-1.06138 -5.92733,-1.07493 -4.39607,0.0896 -8.0062,1.462 -10.83042,4.11718 -2.82423,2.65524 -4.28451,6.0558 -4.38085,10.20169 0.0972,4.14931 1.5355,7.56339 4.31493,10.24226 2.77943,2.67887 6.31689,4.06479 10.6124,4.15774 1.98336,-0.0169 3.94899,-0.35831 5.8969,-1.02422 1.94786,-0.66592 3.65998,-1.55493 5.13634,-2.66704 l 0,-10.46536 -4.17803,0 z"/>
        <path id="path4198" style="letter-spacing:6px;fill:#484848;font-family:Montserrat;-inkscape-font-specification:Montserrat" d="m -694.38678,975.12836 -6.36845,-9.49183 c 1.89547,-0.73859 3.3473,-1.88788 4.35549,-3.44789 1.00814,-1.55999 1.51688,-3.47999 1.5262,-5.76 -0.0228,-3.10139 -1.02172,-5.48787 -2.99662,-7.15944 -1.97495,-1.67152 -4.78903,-2.51659 -8.44225,-2.53521 l -11.52,0 0,28.39437 4.78647,0 0,-8.55888 6.73353,0 c 0.45294,0.007 0.88561,-0.007 1.29802,-0.0406 l 5.19212,8.59944 z m -18.65916,-12.8586 0,-11.23605 6.73353,0 c 2.20392,-0.003 3.90082,0.4496 5.0907,1.35887 1.18984,0.90932 1.79153,2.29523 1.80507,4.15775 -0.0135,1.92424 -0.61523,3.35917 -1.80507,4.30479 -1.18988,0.94564 -2.88678,1.41719 -5.0907,1.41464 z"/>
        <path id="path4200" style="letter-spacing:6px;fill:#484848;font-family:Montserrat;-inkscape-font-specification:Montserrat" d="m -669.82233,946.6123 c -4.33606,0.0871 -7.90395,1.45439 -10.70366,4.10197 -2.79972,2.64763 -4.24817,6.05326 -4.34535,10.2169 0.0972,4.14931 1.54563,7.56339 4.34535,10.24226 2.79971,2.67887 6.3676,4.06479 10.70366,4.15774 4.33604,-0.093 7.90392,-1.47887 10.70367,-4.15774 2.79969,-2.67887 4.24813,-6.09295 4.34535,-10.24226 -0.0972,-4.14589 -1.54566,-7.54645 -4.34535,-10.20169 -2.79975,-2.65518 -6.36763,-4.02757 -10.70367,-4.11718 z m 0.0406,4.29972 c 2.85209,0.0651 5.23012,1.03016 7.13408,2.89521 1.90392,1.86509 2.89265,4.23973 2.9662,7.12394 -0.0736,2.88762 -1.06228,5.27579 -2.9662,7.16451 -1.90396,1.88874 -4.28199,2.86733 -7.13408,2.93578 -2.8572,-0.0684 -5.25551,-1.04704 -7.19493,-2.93578 -1.93945,-1.88872 -2.94846,-4.27689 -3.02704,-7.16451 0.0761,-2.88421 1.07999,-5.25885 3.01183,-7.12394 1.93182,-1.86505 4.33519,-2.83012 7.21014,-2.89521 z"/>
        <path id="path4202" style="letter-spacing:6px;fill:#484848;font-family:Montserrat;-inkscape-font-specification:Montserrat" d="m -639.42113,963.36498 0,-16.63099 -4.78648,0 0,16.63099 c 0.0363,3.7462 1.13999,6.66845 3.31098,8.76676 2.17098,2.09831 5.19126,3.16479 9.06085,3.19943 3.86786,-0.0346 6.88138,-1.10112 9.04056,-3.19943 2.15913,-2.09831 3.25603,-5.02056 3.29071,-8.76676 l 0,-16.63099 -4.78648,0 0,16.63099 c -0.0237,2.43127 -0.69636,4.3124 -2.01803,5.64338 -1.32171,1.33099 -3.15044,2.00535 -5.4862,2.0231 -2.3586,-0.0203 -4.21269,-0.69972 -5.56225,-2.03832 -1.34959,-1.33858 -2.03748,-3.21463 -2.06366,-5.62816 z"/>
        <path id="path4204" style="letter-spacing:6px;fill:#484848;font-family:Montserrat;-inkscape-font-specification:Montserrat" d="m -595.34503,946.73399 -11.31719,0 0,28.39437 4.78648,0 0,-8.55888 6.53071,0 c 3.59153,-0.022 6.35659,-0.91097 8.29521,-2.66704 1.93856,-1.75604 2.91884,-4.24731 2.94084,-7.4738 -0.022,-3.10139 -1.00228,-5.48787 -2.94084,-7.15944 -1.93862,-1.67152 -4.70368,-2.51659 -8.29521,-2.53521 z m -0.20282,15.53577 -6.32789,0 0,-11.23605 6.32789,0 c 2.20224,-0.003 3.89237,0.4496 5.07042,1.35887 1.17801,0.90932 1.77294,2.29523 1.78479,4.15775 -0.0118,1.92424 -0.60678,3.35917 -1.78479,4.30479 -1.17805,0.94564 -2.86819,1.41719 -5.07042,1.41464 z"/>
      </g>
      <g transform="matrix(0.40271088,0,0,0.40271088,-579.53544,492.50488)" id="g3082">
        <path style="font-size:medium;font-style:normal;font-variant:normal;font-weight:normal;font-stretch:normal;text-indent:0;text-align:start;text-decoration:none;line-height:normal;letter-spacing:normal;word-spacing:normal;text-transform:none;direction:ltr;block-progression:tb;writing-mode:lr-tb;text-anchor:start;baseline-shift:baseline;color:#000000;fill:#006233;fill-opacity:1;stroke:none;stroke-width:14.62993431;marker:none;visibility:visible;display:inline;overflow:visible;enable-background:accumulate;font-family:Sans;-inkscape-font-specification:Sans" d="m -535.4354,246.53108 -16.10784,49.47963 -35.46633,109.21636 -114.70607,0 -52.00779,0 42.11174,30.55458 92.81958,67.46565 -35.46654,109.14414 -16.10808,49.47962 42.11197,-30.62681 92.81936,-67.46566 92.81955,67.46566 42.11175,30.62681 -16.03546,-49.47962 -35.46659,-109.14414 92.81942,-67.46565 42.11195,-30.55458 -52.07999,0 -114.70597,0 -35.46659,-109.21636 -16.10807,-49.47963 z m 0,109.43306 15.96361,49.26293 -31.92704,0 15.96343,-49.26293 z m -114.27244,83.068 51.71884,0 -9.82369,30.4101 -41.89515,-30.4101 z m 87.32965,0 53.88576,0 16.68579,51.28545 -43.62876,31.7103 -43.62878,-31.7103 16.68599,-51.28545 z m 89.49681,0 51.7188,0 -41.82293,30.4101 -9.89587,-30.4101 z m -117.16221,85.09051 25.85966,18.7806 -41.89516,30.48234 16.0355,-49.26294 z m 109.21641,0 15.96348,49.1907 -41.82273,-30.4101 25.85925,-18.7806 z" id="path3012-4" inkscape:connector-curvature="0"/>
        <path inkscape:connector-curvature="0" d="m -535.38505,177.46111 c -101.93726,0 -191.9943,51.14661 -245.90916,129.15728 l 57.75359,33.35768 c 42.23461,-58.2232 110.77855,-96.13152 188.15557,-96.13152 77.37701,1e-5 145.92095,37.90832 188.15556,96.13152 l 57.75359,-33.35768 C -343.39076,228.60772 -433.4478,177.46111 -535.38505,177.46111 z" style="fill:#990000;fill-opacity:1;stroke:none" id="path4005"/>
        <path inkscape:connector-curvature="0" d="m -812.74336,365.16029 c -13.76734,34.33129 -21.36717,71.79374 -21.36717,111.0263 0,153.68008 116.23574,280.37519 265.53376,296.89994 l 0,-66.9643 c -112.53936,-16.12911 -199.15032,-112.9578 -199.15032,-229.93564 0,-27.14522 4.66715,-53.19722 13.23519,-77.41968 l -58.25146,-33.60662 z" style="fill:#339966;fill-opacity:1;stroke:none" id="path4003"/>
        <path inkscape:connector-curvature="0" d="m -258.02674,365.16029 -58.25147,33.60662 c 8.56804,24.22246 13.2352,50.27446 13.2352,77.41968 0,116.97782 -86.61096,213.80653 -199.15032,229.93564 l 0,66.9643 c 149.298,-16.52475 265.53374,-143.21986 265.53376,-296.89994 0,-39.23256 -7.59985,-76.69501 -21.36717,-111.0263 z" style="fill:#339966;fill-opacity:1;stroke:none" id="path3918"/>
      </g>
      <path id="path3231" d="m -1045.9611,882.53119 11.9,-38.6 h 15.6 l 11.8,38.6 13.3,-38.6 h 16.2 l -23.4,67.1 h -11.1 l -14.7,-46.7 -14.6,46.7 h -11.1 l -23.4,-67.1 h 16.2 l 13.3,38.6 z" inkscape:connector-curvature="0"/>
      <path id="path3233" d="m -969.0611,843.93119 h 15 v 67.1 h -15 v -67.1 z" inkscape:connector-curvature="0"/>
      <path id="path3235" d="m -937.5611,843.93119 h 15 v 27.6 l 25.3,-27.6 h 18.5 l -26.7,29.7 c 2.3,3.2 6.6,9.2 12.8,17.9 6.2,8.7 10.8,15.2 13.9,19.5 h -17.5 l -19.6,-26.5 -6.7,7.5 v 19 h -15 v -67.1 z" inkscape:connector-curvature="0"/>
      <path id="path3237" d="m -869.4611,843.93119 h 15 v 67.1 h -15 v -67.1 z" inkscape:connector-curvature="0"/>
      <path id="path3239" d="m -777.8611,868.83119 -18.1,36.7 h -9 l -18,-36.7 v 42.2 h -15 v -67.1 h 20.3 l 17.3,36.9 17.4,-36.9 h 20.2 v 67.1 h -15 v -42.2 z" inkscape:connector-curvature="0"/>
      <path id="path3241" d="m -697.9611,843.93119 v 13.3 h -33.4 v 13.8 h 30 v 12.8 h -30 v 13.9 h 34.4 v 13.2 h -49.4 v -67.1 h 48.4 z" inkscape:connector-curvature="0"/>
      <path id="path3243" d="m -632.3611,852.73119 c 6.4,5.9 9.6,14 9.6,24.4 0,10.4 -3.1,18.7 -9.4,24.8 -6.2,6.1 -15.8,9.1 -28.6,9.1 h -22.9 v -67.1 h 23.7 c 12.1,0 21.2,3 27.6,8.8 z m -11,39.9 c 3.7,-3.5 5.5,-8.5 5.5,-15.1 0,-6.6 -1.8,-11.7 -5.5,-15.2 -3.7,-3.6 -9.3,-5.3 -16.9,-5.3 h -8.4 v 40.8 h 9.5 c 6.9,0 12.2,-1.7 15.8,-5.2 z" inkscape:connector-curvature="0"/>
      <path id="path3245" d="m -609.7611,843.93119 h 15 v 67.1 h -15 v -67.1 z" inkscape:connector-curvature="0"/>
      <path id="path3247" d="m -530.4611,911.03119 -6.2,-14.5 h -28.1 l -6.2,14.5 h -15.9 l 29,-67.1 h 14.5 l 29,67.1 h -16.1 z m -20.3,-47.1 -8.4,19.5 h 16.8 l -8.4,-19.5 z" inkscape:connector-curvature="0"/>
    </g>
    <g style="display:none" class="st0" id="g3269" transform="translate(-1101.9611,544.53119)">
	<path style="fill:#ffffff" inkscape:connector-curvature="0" class="st1" d="m 317.3,216 c 35.9,-5.1 63.5,-35.9 63.5,-73.3 0,-22.7 -10.2,-43 -26.3,-56.5 l -37.3,37.3 V 216 z" id="path3271"/>

	<path style="fill:#ffffff" inkscape:connector-curvature="0" class="st1" d="M 296.4,216 V 123.5 L 259.1,86.2 c -16.1,13.6 -26.3,33.9 -26.3,56.5 0.1,37.3 27.7,68.2 63.6,73.3 z" id="path3273"/>

	<path style="fill:#ffffff" inkscape:connector-curvature="0" class="st1" d="m 371.2,78.4 c 17.2,17.2 26.6,40 26.6,64.3 0,24.3 -9.5,47.1 -26.6,64.3 -17.2,17.2 -40,26.6 -64.3,26.6 -24.3,0 -47.1,-9.5 -64.3,-26.6 -17.2,-17.1 -26.6,-40 -26.6,-64.3 0,-24.3 9.5,-47.1 26.6,-64.3 1.5,-1.5 3,-2.9 4.5,-4.2 L 226.3,53.4 c -1.5,1.4 -3,2.8 -4.5,4.3 -11,11 -19.7,23.9 -25.8,38.2 -6.3,14.8 -9.5,30.6 -9.5,46.8 0,16.2 3.2,32 9.5,46.8 6.1,14.3 14.7,27.2 25.8,38.2 11,11 23.9,19.7 38.2,25.8 14.8,6.3 30.6,9.5 46.8,9.5 16.2,0 32,-3.2 46.8,-9.5 14.3,-6.1 27.2,-14.7 38.2,-25.8 11,-11 19.7,-23.9 25.8,-38.2 6.3,-14.8 9.5,-30.6 9.5,-46.8 0,-16.2 -3.2,-32 -9.5,-46.8 -6.1,-14.3 -14.7,-27.2 -25.8,-38.2 -1.5,-1.5 -3,-2.9 -4.5,-4.3 l -20.8,20.8 c 1.7,1.3 3.2,2.7 4.7,4.2 z" id="path3275"/>

	<circle d="m 344.39999,59.299999 c 0,20.710678 -16.78932,37.5 -37.5,37.5 -20.71067,0 -37.5,-16.789322 -37.5,-37.5 0,-20.710678 16.78933,-37.5 37.5,-37.5 20.71068,0 37.5,16.789322 37.5,37.5 z" style="fill:#ffffff" sodipodi:ry="37.5" sodipodi:rx="37.5" sodipodi:cy="59.299999" sodipodi:cx="306.89999" id="red_circle_52_" class="st1" cx="306.89999" cy="59.299999" r="37.5"/>

</g>
  </g>
  <style id="style3225" type="text/css">
	.st0{display:none;}
	.st1{fill:#FFFFFF;}
</style>
</svg>